<svg width="1732" height="1736" xmlns="http://www.w3.org/2000/svg" xmlns:xlink="http://www.w3.org/1999/xlink" xml:space="preserve" overflow="hidden"><g transform="translate(-1348 -377)"><path d="M1351.5 1248C1351.5 772.207 1737.43 386.5 2213.5 386.5 2689.57 386.5 3075.5 772.207 3075.5 1248 3075.5 1723.79 2689.57 2109.5 2213.5 2109.5 1737.43 2109.5 1351.5 1723.79 1351.5 1248Z" stroke="#FFFFFF" stroke-width="6.875" stroke-miterlimit="8" fill="#FFFFFF" fill-rule="evenodd"/><path d="M2213.84 382.718 2402.4 569.511 2317.92 570.136 2218.47 470.774C2140.84 549.688 2063.21 628.601 1985.59 707.515L1884.15 707.919C1994.05 599.748 2103.95 490.889 2213.84 382.718Z" stroke="#FF5793" stroke-width="6.875" stroke-miterlimit="8" fill="#FF5793" fill-rule="evenodd"/><path d="M2215.71 2103.28 2027.15 1916.49 2111.63 1915.86 2211.09 2015.23C2288.72 1936.31 2366.34 1857.4 2443.97 1778.49L2545.4 1778.08C2435.51 1886.25 2325.61 1995.11 2215.71 2103.28Z" stroke="#FF5793" stroke-width="6.875" stroke-miterlimit="8" fill="#FF5793" fill-rule="evenodd"/><path d="M1358.38 1242.59 1435.17 1170.22 1474.98 1210.01 1446.43 1237.97C1525.35 1315.6 1708.07 1504.6 1786.99 1582.22L1699.39 1583.28C1591.22 1473.39 1466.55 1352.49 1358.38 1242.59Z" stroke="#FF5793" stroke-width="6.875" stroke-miterlimit="8" fill="#FF5793" fill-rule="evenodd"/><path d="M3074.29 1243.65 2997.49 1316.02 2957.68 1276.23 2986.23 1248.27C2907.32 1170.64 2724.59 981.64 2645.68 904.013L2733.27 902.956C2841.44 1012.85 2966.12 1133.75 3074.29 1243.65Z" stroke="#FF5793" stroke-width="6.875" stroke-miterlimit="8" fill="#FF5793" fill-rule="evenodd"/><path d="M2238.78 625.184 2776.5 624.5 2747.39 688.134 2269.03 688.134 2181.02 773.5 2087.5 772.979 2238.78 625.184Z" stroke="#00ADB5" stroke-width="6.875" stroke-miterlimit="8" fill="#00ADB5" fill-rule="evenodd"/><path d="M2747.5 688.489 2778.02 624.5 2923.5 766.56 2891.56 841.5 2747.5 688.489Z" stroke="#00ADB5" stroke-width="6.875" stroke-miterlimit="8" fill="#00ADB5" fill-rule="evenodd"/><path d="M1722.45 770.5 2827.99 776.702 2888.5 840.891 1752.81 833.311 1525.92 1061.27 1427.5 1068.5 1722.45 770.5Z" stroke="#00ADB5" stroke-width="6.875" stroke-miterlimit="8" fill="#00ADB5" fill-rule="evenodd"/><path d="M2201.44 1861.82 1664.5 1862.5 1693.56 1798.87 2171.23 1798.87 2259.12 1713.5 2352.5 1714.02 2201.44 1861.82Z" stroke="#00ADB5" stroke-width="6.875" stroke-miterlimit="8" fill="#00ADB5" fill-rule="evenodd"/><path d="M1693.5 1798.51 1662.98 1862.5 1517.5 1720.44 1549.44 1645.5 1693.5 1798.51Z" stroke="#00ADB5" stroke-width="6.875" stroke-miterlimit="8" fill="#00ADB5" fill-rule="evenodd"/><path d="M2717.55 1716.5 1612.01 1710.3 1551.5 1646.11 2687.19 1653.69 2914.08 1425.73 3012.5 1418.5 2717.55 1716.5Z" stroke="#00ADB5" stroke-width="6.875" stroke-miterlimit="8" fill="#00ADB5" fill-rule="evenodd"/><path d="M1807.8 1189.5 1599.5 988.808 1646.02 945.5 1834.59 1127.64 2010.5 1131.94 1996.08 1189.47 1807.8 1189.5Z" stroke="#00ADB5" stroke-width="6.875" stroke-miterlimit="8" fill="#00ADB5" fill-rule="evenodd"/><path d="M1718.2 1357.5 1428.5 1072.36 1524.6 1065.5 1751.21 1297.17 1999.54 1294.61 2019.5 1356.1 1718.2 1357.5Z" stroke="#00ADB5" stroke-width="6.875" stroke-miterlimit="8" fill="#00ADB5" fill-rule="evenodd"/><path d="M2634.2 1297.23 2842.5 1498.14 2795.97 1541.5 2607.41 1359.16 2420.5 1354.16 2445.23 1294.5 2634.2 1297.23Z" stroke="#00ADB5" stroke-width="6.875" stroke-miterlimit="8" fill="#00ADB5" fill-rule="evenodd"/><path d="M2721.25 1132.5 3010.5 1418.61 2914.55 1425.5 2688.29 1193.03 2449.51 1193.54 2430.5 1134.59 2721.25 1132.5Z" stroke="#00ADB5" stroke-width="6.875" stroke-miterlimit="8" fill="#00ADB5" fill-rule="evenodd"/><path d="M2214 1003.5 2215.5 1003.83 2209.5 1004.5 2214 1003.5Z" stroke="#042433" stroke-width="6.875" stroke-miterlimit="8" fill="#156082" fill-rule="evenodd"/><path d="M2218.37 1003.5C2347.12 1003.5 2451.5 1107.82 2451.5 1236.5 2451.5 1365.18 2347.12 1469.5 2218.37 1469.5L2216.12 1469.39 2216.11 1469.39 2207.96 1468.97 2190.57 1467.21C2137.46 1456.28 2097.5 1409 2097.5 1352.33 2097.5 1295.66 2137.46 1248.38 2190.57 1237.45L2206.92 1235.79 2213.99 1236.5 2221.14 1235.78 2237.56 1237.45C2284.04 1247.01 2320.44 1284.41 2328.81 1331.57L2330.63 1352.33 2330.63 1352.33C2330.63 1295.66 2290.68 1248.38 2237.56 1237.45L2221.14 1235.78 2237.49 1234.13C2290.6 1223.27 2330.56 1176.3 2330.56 1120 2330.56 1063.7 2290.6 1016.73 2237.49 1005.87L2215.45 1003.65Z" stroke="#00ADB5" stroke-width="6.875" stroke-miterlimit="8" fill="#00ADB5" fill-rule="evenodd"/><path d="M2215.5 1003.5 2237.51 1005.72C2290.58 1016.57 2330.5 1063.51 2330.5 1119.77 2330.5 1176.03 2290.58 1222.97 2237.51 1233.82L2221.18 1235.47 2214.12 1234.75 2206.98 1235.48 2206.98 1235.48 2190.65 1237.13C2137.58 1248.06 2097.66 1295.31 2097.66 1351.94 2097.66 1408.56 2137.58 1455.81 2190.65 1466.74L2208.02 1468.5 2194.6 1467.82C2077.15 1455.9 1985.5 1356.74 1985.5 1236.19 1985.5 1115.63 2077.15 1016.48 2194.6 1004.55L2209.66 1003.79 2190.57 1005.72C2137.51 1016.57 2097.59 1063.51 2097.59 1119.77L2097.59 1119.77 2099.41 1099.16C2107.77 1052.34 2144.14 1015.22 2190.57 1005.72L2209.66 1003.79Z" stroke="#FF5793" stroke-width="6.875" stroke-miterlimit="8" fill="#FF5793" fill-rule="evenodd"/><path d="M2207.5 1468.5 2216.5 1469.16 2214.24 1469.5 2207.5 1468.5Z" stroke="#FF5793" stroke-width="6.875" stroke-miterlimit="8" fill="#FF5793" fill-rule="evenodd"/><path d="M2169.5 1118C2169.5 1092.32 2190.32 1071.5 2216 1071.5 2241.68 1071.5 2262.5 1092.32 2262.5 1118 2262.5 1143.68 2241.68 1164.5 2216 1164.5 2190.32 1164.5 2169.5 1143.68 2169.5 1118Z" stroke="#00ADB5" stroke-width="6.875" stroke-miterlimit="8" fill="#00ADB5" fill-rule="evenodd"/><path d="M2171.5 1347C2171.5 1321.32 2192.54 1300.5 2218.5 1300.5 2244.46 1300.5 2265.5 1321.32 2265.5 1347 2265.5 1372.68 2244.46 1393.5 2218.5 1393.5 2192.54 1393.5 2171.5 1372.68 2171.5 1347Z" stroke="#FF5793" stroke-width="6.875" stroke-miterlimit="8" fill="#FF5793" fill-rule="evenodd"/></g></svg>
